<svg xmlns="http://www.w3.org/2000/svg" xmlns:xlink="http://www.w3.org/1999/xlink" version="1.1" x="0px" y="0px" viewBox="0 0 100 125" style="enable-background:new 0 0 100 100;" xml:space="preserve"><path d="M67.6,74.7L57.4,55.6v-14h1.2c0.7,0,1.2-0.5,1.2-1.2c0-0.7-0.5-1.2-1.2-1.2H41.4c-0.7,0-1.2,0.5-1.2,1.2  c0,0.7,0.5,1.2,1.2,1.2h1.2v14L32.4,74.7c-0.6,1.1-0.6,2.4,0.1,3.5c0.7,1.1,1.8,1.7,3.1,1.7h28.6c1.3,0,2.5-0.7,3.1-1.7  C68.1,77.2,68.2,75.9,67.6,74.7z M65.4,77c-0.1,0.2-0.4,0.6-1,0.6H35.7c-0.6,0-0.9-0.4-1-0.6c-0.1-0.2-0.3-0.6,0-1.2L45,56.5  c0.1-0.2,0.1-0.4,0.1-0.6V41.6h9.8v14.3c0,0.2,0,0.4,0.1,0.6l10.4,19.3C65.7,76.4,65.5,76.8,65.4,77z M42.6,32c3.4,0,6.1-2.7,6.1-6  s-2.7-6-6.1-6c-3.4,0-6.1,2.7-6.1,6S39.2,32,42.6,32z M42.6,22.4c2,0,3.7,1.6,3.7,3.6s-1.6,3.6-3.7,3.6c-2,0-3.7-1.6-3.7-3.6  S40.6,22.4,42.6,22.4z M54.8,30.9c0,2,1.6,3.6,3.7,3.6c2,0,3.7-1.6,3.7-3.6s-1.6-3.6-3.7-3.6C56.4,27.3,54.8,28.9,54.8,30.9z   M58.5,29.7c0.7,0,1.2,0.5,1.2,1.2c0,0.7-0.5,1.2-1.2,1.2c-0.7,0-1.2-0.5-1.2-1.2C57.2,30.3,57.8,29.7,58.5,29.7z M51.1,23.6  c0-1.3,1.1-2.4,2.4-2.4c1.4,0,2.4,1.1,2.4,2.4c0,1.3-1.1,2.4-2.4,2.4C52.2,26,51.1,24.9,51.1,23.6z M57,62.7l7.3,13.7H35.7  c0,0,0,0,0,0l6.4-12c2.3-0.2,2.5-1.9,5.1-1.9c2.8,0,2.8,1.9,5.6,1.9C55,64.5,55.5,63.2,57,62.7z"/></svg>